<svg width="140" height="35" viewBox="0 0 140 35" fill="none" xmlns="http://www.w3.org/2000/svg">
<path d="M7.65724 3.57514C10.7794 3.57514 13.2065 4.2251 14.9385 5.52504C16.6705 6.82497 17.5365 8.75207 17.5365 11.3063C17.5365 13.9746 16.6819 15.9929 14.9726 17.3613C13.2862 18.7068 11.0187 19.3796 8.17001 19.3796H5.6062V27.2819H0V3.57514H7.65724ZM7.69143 15.343C9.01322 15.343 10.0159 15.0351 10.6996 14.4193C11.4061 13.7808 11.7593 12.7431 11.7593 11.3063C11.7593 8.82049 10.3692 7.57757 7.58888 7.57757H5.6062V15.343H7.69143Z" fill="white"/>
<path d="M30.3582 8.53541C31.9306 8.53541 33.1613 9.01434 34.0501 9.97219C34.9388 10.93 35.3832 12.2756 35.3832 14.0088V27.2819H29.9821V14.9325C29.9821 14.0202 29.834 13.3931 29.5378 13.051C29.2415 12.6861 28.8199 12.5036 28.2729 12.5036C27.1791 12.5036 26.1307 13.279 25.128 14.8298V27.2819H19.7269V1.8989L25.128 1.35156V11.0669C25.8801 10.2231 26.6777 9.59589 27.5209 9.18538C28.3641 8.75207 29.3099 8.53541 30.3582 8.53541Z" fill="white"/>
<path d="M49.2719 27.3161C48.5426 29.6651 47.3462 31.4667 45.6825 32.7211C44.0417 33.9982 41.8311 34.7166 39.0508 34.8762L38.4697 31.079C40.2017 30.851 41.4779 30.4633 42.2983 29.9159C43.1415 29.3686 43.8138 28.4906 44.3152 27.2819H42.4692L36.9314 9.11697H42.6743L45.9218 23.8268L49.477 9.11697H55.049L49.2719 27.3161Z" fill="white"/>
<path d="M84.9411 8.53541C87.7215 8.53541 89.8978 9.39064 91.4703 11.1011C93.0428 12.7887 93.829 15.1605 93.829 18.2165C93.829 20.155 93.4644 21.8541 92.7351 23.3136C92.0287 24.7504 91.0031 25.8679 89.6585 26.6661C88.3368 27.4643 86.7643 27.8634 84.9411 27.8634C82.1836 27.8634 80.0072 27.0196 78.412 25.3319C76.8395 23.6215 76.0533 21.2383 76.0533 18.1823C76.0533 16.2438 76.4065 14.5562 77.113 13.1194C77.8422 11.6598 78.8678 10.5309 80.1895 9.73272C81.5341 8.93452 83.118 8.53541 84.9411 8.53541ZM84.9411 12.5036C83.8472 12.5036 83.0268 12.9712 82.4799 13.9062C81.9329 14.8184 81.6595 16.2438 81.6595 18.1823C81.6595 20.1664 81.9215 21.6146 82.4457 22.5268C82.9926 23.4391 83.8245 23.8952 84.9411 23.8952C86.035 23.8952 86.8555 23.4391 87.4024 22.5268C87.9493 21.5918 88.2228 20.155 88.2228 18.2165C88.2228 16.2324 87.9493 14.7842 87.4024 13.872C86.8782 12.9598 86.0578 12.5036 84.9411 12.5036Z" fill="white"/>
<path d="M57.6016 1.65783L63.2989 0.875V27.957H57.6016V1.65783Z" fill="white"/>
<path d="M67.0977 1.65783L72.795 0.875V27.957H67.0977V1.65783Z" fill="white"/>
<path d="M98.2079 4.60146C97.6879 2.63467 139.999 4.56868 139.999 4.56868L120.224 30.5149C120.224 30.5149 111.572 20.8589 108.724 17.5059C105.875 14.153 98.7279 6.56825 98.2079 4.60146Z" fill="#473AE9"/>
<path d="M98.966 10.5076C98.2562 8.74385 139.998 4.57031 139.998 4.57031L120.223 30.5165C120.223 30.5165 110.92 22.1736 109.197 20.3583C107.473 18.543 99.6758 12.2714 98.966 10.5076Z" fill="#8E00C5"/>
<path d="M100.624 17.0226C99.5164 15.7099 139.996 4.57031 139.996 4.57031L120.221 30.5165C120.221 30.5165 112.126 25.7848 110.145 24.1593C108.164 22.5337 101.731 18.3352 100.624 17.0226Z" fill="#FF6E63"/>
<path d="M103.853 24.1384C102.929 22.6827 139.998 4.57031 139.998 4.57031L120.223 30.5165C120.223 30.5165 115.279 29.2066 112.29 27.9698C108.865 26.5524 104.776 25.5942 103.853 24.1384Z" fill="#FFA427"/>
</svg>
