<svg width="476" height="393" viewBox="0 0 476 393" fill="none" xmlns="http://www.w3.org/2000/svg">
<g clip-path="url(#clip0_171_3787)">
<path d="M121.299 102.732L174.981 67.0127L178.779 113.223L126.869 150.698L121.299 102.732Z" fill="url(#paint0_linear_171_3787)"/>
<path d="M121.298 102.732L74.9082 65.8779L80.6269 113.868L126.868 150.698L121.298 102.732Z" fill="url(#paint1_linear_171_3787)"/>
<path d="M74.9082 65.8782L128.757 30.1641L174.98 67.0129L121.298 102.732L74.9082 65.8782Z" fill="url(#paint2_linear_171_3787)"/>
</g>
<g clip-path="url(#clip1_171_3787)">
<path d="M368.898 178.384L469.468 116.09L378.212 95.934L368.898 178.384Z" fill="url(#paint3_linear_171_3787)"/>
<path d="M378.212 95.935L360.687 64.1249L368.898 178.385L378.212 95.935Z" fill="url(#paint4_linear_171_3787)"/>
<path d="M360.688 64.125L378.212 95.9351L469.468 116.091L360.688 64.125Z" fill="url(#paint5_linear_171_3787)"/>
</g>
<path d="M89.635 174.956C82.3492 174.956 76.4434 169.048 76.4434 161.76C76.4434 154.471 82.3492 148.563 89.635 148.563C96.9209 148.563 102.827 154.471 102.827 161.76C102.827 169.048 96.9209 174.956 89.635 174.956Z" fill="#6535BB"/>
<path d="M76.4395 158.283C76.4395 158.283 93.8029 163.242 99.736 153.276" stroke="#021226" stroke-width="0.18307" stroke-miterlimit="10"/>
<path d="M76.4395 164.52C76.4395 164.52 94.7925 168.621 101.688 156.396" stroke="#021226" stroke-width="0.18307" stroke-miterlimit="10"/>
<path d="M102.663 159.675C106.031 161.674 107.911 164.285 107.389 166.047C106.383 169.441 97.6219 169.838 87.8144 166.934C78.0092 164.03 70.8732 158.924 71.8786 155.532C72.4257 153.684 76.1889 152.428 80.0406 152.703" stroke="#F8FBFF" stroke-width="0.133641" stroke-miterlimit="10"/>
<path d="M321.394 77.546C330.766 77.546 338.364 69.9453 338.364 60.5694C338.364 51.1935 330.766 43.5928 321.394 43.5928C312.021 43.5928 304.423 51.1935 304.423 60.5694C304.423 69.9453 312.021 77.546 321.394 77.546Z" fill="#6535BB"/>
<path d="M305.132 67.172C305.132 67.172 326.83 58.8755 325.253 44.04" stroke="#021226" stroke-width="0.236161" stroke-miterlimit="10"/>
<path d="M309.943 73.5929C309.943 73.5929 331.998 63.6504 329.67 45.7451" stroke="#021226" stroke-width="0.236161" stroke-miterlimit="10"/>
<path d="M333.199 48.3704C338.208 47.8301 342.155 49.0652 342.977 51.2835C344.561 55.5521 335.845 62.7246 323.512 67.3019C311.178 71.8793 299.897 72.129 298.313 67.8605C297.451 65.5355 300.356 61.3396 304.532 58.649" stroke="#F8FBFF" stroke-width="0.170255" stroke-miterlimit="10"/>
<path d="M214.541 280.404C244.253 280.404 268.339 272.408 268.339 262.544C268.339 252.681 244.253 244.685 214.541 244.685C184.83 244.685 160.744 252.681 160.744 262.544C160.744 272.408 184.83 280.404 214.541 280.404Z" stroke="#7F90E5" stroke-width="0.18307" stroke-miterlimit="10"/>
<path d="M213.897 295.333C261.717 295.333 300.483 281.147 300.483 263.648C300.483 246.149 261.717 231.963 213.897 231.963C166.077 231.963 127.312 246.149 127.312 263.648C127.312 281.147 166.077 295.333 213.897 295.333Z" stroke="#7F90E5" stroke-width="0.18307" stroke-miterlimit="10"/>
<path d="M65.0273 328.952L182.672 276.933" stroke="#7F90E5" stroke-width="0.18307" stroke-miterlimit="10"/>
<path d="M129.315 281.958L164.385 269.014" stroke="#7F90E5" stroke-width="0.18307" stroke-miterlimit="10"/>
<path d="M211.69 280.379L214.868 304.217" stroke="#7F90E5" stroke-width="0.18307" stroke-miterlimit="10"/>
<path d="M218.891 280.402L283.607 389.305" stroke="#7F90E5" stroke-width="0.18307" stroke-miterlimit="10"/>
<path d="M240.585 278L290.53 328.953" stroke="#7F90E5" stroke-width="0.18307" stroke-miterlimit="10"/>
<path d="M267.83 265.006L348.884 278" stroke="#7F90E5" stroke-width="0.18307" stroke-miterlimit="10"/>
<path d="M267.857 260.149L348.885 258.705" stroke="#7F90E5" stroke-width="0.18307" stroke-miterlimit="10"/>
<path d="M86.418 211.556L182.288 248.337" stroke="#7F90E5" stroke-width="0.18307" stroke-miterlimit="10"/>
<path d="M248.668 244.684L277.376 231.538" stroke="#7F90E5" stroke-width="0.18307" stroke-miterlimit="10"/>
<path d="M213.897 316.441C286.317 316.441 345.026 293.83 345.026 265.938C345.026 238.046 286.317 215.436 213.897 215.436C141.476 215.436 82.7676 238.046 82.7676 265.938C82.7676 293.83 141.476 316.441 213.897 316.441Z" stroke="#7F90E5" stroke-width="0.18307" stroke-miterlimit="10"/>
<path d="M213.897 336.715C306.677 336.715 381.889 305.285 381.889 266.513C381.889 227.742 306.677 196.312 213.897 196.312C121.118 196.312 45.9053 227.742 45.9053 266.513C45.9053 305.285 121.118 336.715 213.897 336.715Z" stroke="#7F90E5" stroke-width="0.18307" stroke-miterlimit="10"/>
<path d="M217.67 364.879C337.508 364.879 434.656 322.461 434.656 270.136C434.656 217.811 337.508 175.394 217.67 175.394C97.8316 175.394 0.683594 217.811 0.683594 270.136C0.683594 322.461 97.8316 364.879 217.67 364.879Z" stroke="#324085" stroke-width="0.18307" stroke-miterlimit="10"/>
<path d="M93.5829 319.714C97.5415 319.714 100.751 318.07 100.751 316.043C100.751 314.015 97.5415 312.371 93.5829 312.371C89.6242 312.371 86.415 314.015 86.415 316.043C86.415 318.07 89.6242 319.714 93.5829 319.714Z" fill="#021226" stroke="#7F90E5" stroke-width="0.18307" stroke-miterlimit="10"/>
<path d="M279.154 231.963C280.744 231.963 282.034 231.219 282.034 230.301C282.034 229.383 280.744 228.639 279.154 228.639C277.563 228.639 276.273 229.383 276.273 230.301C276.273 231.219 277.563 231.963 279.154 231.963Z" fill="#021226" stroke="#7F90E5" stroke-width="0.18307" stroke-miterlimit="10"/>
<path d="M214.869 306.826C216.459 306.826 217.749 306.082 217.749 305.164C217.749 304.246 216.459 303.502 214.869 303.502C213.278 303.502 211.988 304.246 211.988 305.164C211.988 306.082 213.278 306.826 214.869 306.826Z" fill="#021226" stroke="#7F90E5" stroke-width="0.18307" stroke-miterlimit="10"/>
<path d="M300.48 295.455C303.501 295.455 305.95 294.041 305.95 292.297C305.95 290.553 303.501 289.139 300.48 289.139C297.459 289.139 295.01 290.553 295.01 292.297C295.01 294.041 297.459 295.455 300.48 295.455Z" fill="#021226" stroke="#7F90E5" stroke-width="0.18307" stroke-miterlimit="10"/>
<path d="M86.9257 213.582C88.8661 213.582 90.4392 212.675 90.4392 211.555C90.4392 210.435 88.8661 209.527 86.9257 209.527C84.9852 209.527 83.4121 210.435 83.4121 211.555C83.4121 212.675 84.9852 213.582 86.9257 213.582Z" fill="#021226" stroke="#7F90E5" stroke-width="0.18307" stroke-miterlimit="10"/>
<path d="M128.508 284.623C130.504 284.623 132.121 283.69 132.121 282.538C132.121 281.387 130.504 280.454 128.508 280.454C126.512 280.454 124.895 281.387 124.895 282.538C124.895 283.69 126.512 284.623 128.508 284.623Z" fill="#021226" stroke="#7F90E5" stroke-width="0.18307" stroke-miterlimit="10"/>
<path opacity="0.95" d="M187.153 89.8125H241.414L215.042 204.569L187.153 89.8125Z" stroke="white" stroke-width="0.145711" stroke-miterlimit="10" stroke-dasharray="2.62 2.62"/>
<path d="M157.251 163.786C157.251 131.942 183.058 106.126 214.891 106.126C246.724 106.126 272.531 131.942 272.531 163.786" stroke="white" stroke-width="0.291422" stroke-miterlimit="10" stroke-dasharray="2.33 2.33"/>
<path d="M157.478 168.185C159.067 168.185 160.356 166.896 160.356 165.306C160.356 163.716 159.067 162.427 157.478 162.427C155.888 162.427 154.6 163.716 154.6 165.306C154.6 166.896 155.888 168.185 157.478 168.185Z" fill="#EEFFFF"/>
<path d="M272.175 168.185C273.764 168.185 275.053 166.896 275.053 165.306C275.053 163.716 273.764 162.427 272.175 162.427C270.585 162.427 269.297 163.716 269.297 165.306C269.297 166.896 270.585 168.185 272.175 168.185Z" fill="#EEFFFF"/>
<path d="M203.584 164.664L191.439 185.894C188.981 190.226 187.943 195.221 188.474 200.175L190.538 219.427V232.809H242.898L264.195 189.929C267.255 184.995 265.913 178.526 261.144 175.216L225.383 150.243C222.655 148.349 218.93 148.862 216.815 151.426C214.647 154.055 214.924 157.924 217.443 160.217L238.878 179.686C241.872 182.411 241.811 187.143 238.745 189.788L229.591 197.685C223.969 202.534 215.466 201.847 210.697 196.157L209.574 194.817C207.209 191.995 206.582 188.103 207.942 184.684L214.181 169.779C215.67 166.628 214.111 162.879 210.826 161.714C208.014 160.718 204.9 161.984 203.584 164.664Z" fill="#3460E4"/>
<path d="M239.079 145.418L239.206 145.359C236.115 146.764 234.131 149.845 234.131 153.242V181.585L210.696 196.157L224.95 208.651L252.214 188.814L239.399 145.272" fill="#3460E4"/>
<path d="M243.846 163.214L239.15 144.269C238.292 140.808 240.435 137.318 243.907 136.517C247.124 135.775 250.374 137.609 251.402 140.745L265.198 180.517" fill="#3460E4"/>
<path d="M240.351 231.786H191.783C186.893 231.786 182.929 235.752 182.929 240.643C182.929 245.535 186.893 249.501 191.783 249.501H240.351C245.241 249.501 249.205 245.535 249.205 240.643C249.205 235.752 245.241 231.786 240.351 231.786Z" fill="#FACA47"/>
<path d="M240.351 249.501H191.783C186.893 249.501 182.929 253.467 182.929 258.358C182.929 263.25 186.893 267.215 191.783 267.215H240.351C245.241 267.215 249.205 263.25 249.205 258.358C249.205 253.467 245.241 249.501 240.351 249.501Z" fill="#FACA47"/>
<path d="M182.713 249.501H211.35" stroke="#021226" stroke-width="0.291422" stroke-miterlimit="10"/>
<path d="M210.698 196.158C210.698 196.158 214.575 201.617 222.496 200.327C225.352 199.864 227.265 199.003 230.438 196.932C232.249 195.752 233.947 194.399 235.506 192.9L238.745 189.789C238.745 189.789 246.02 182.876 234.133 175.367" stroke="#001738" stroke-width="0.276436" stroke-miterlimit="10"/>
<path d="M230.715 189.578L240.093 181.202" stroke="#001738" stroke-width="0.276436" stroke-miterlimit="10"/>
<path d="M239.401 145.271L243.848 163.213" stroke="#001738" stroke-width="0.276436" stroke-miterlimit="10"/>
<path d="M234.134 156.499L263.214 177.828C263.214 177.828 266.001 180.28 265.833 185.348" stroke="#001738" stroke-width="0.276436" stroke-miterlimit="10"/>
<path d="M200.656 169.458L207.702 172.015L209.61 168.307C210.6 166.386 209.615 163.975 207.524 163.428C206.231 163.087 204.603 163.489 202.76 165.75" stroke="#001738" stroke-width="0.276436" stroke-miterlimit="10"/>
<path d="M230.918 153.917L226.797 157.895L220.723 153.156C220.723 153.156 220.608 149.949 224.427 149.457" stroke="#001738" stroke-width="0.276436" stroke-miterlimit="10"/>
<path d="M253.576 145.626L247.504 146.973L244.835 139.862C244.835 139.862 247 136.869 250.716 138.84" stroke="#001738" stroke-width="0.272775" stroke-miterlimit="10"/>
<path d="M193.221 236.89C193.221 235.853 192.381 235.013 191.344 235.013C190.307 235.013 189.467 235.853 189.467 236.89V244.399C189.467 245.436 190.307 246.277 191.344 246.277C192.381 246.277 193.221 245.436 193.221 244.399V236.89Z" fill="#DDA816"/>
<path d="M200.37 236.89C200.37 235.853 199.53 235.013 198.493 235.013C197.457 235.013 196.616 235.853 196.616 236.89V244.399C196.616 245.436 197.457 246.277 198.493 246.277C199.53 246.277 200.37 245.436 200.37 244.399V236.89Z" fill="#DDA816"/>
<path d="M207.523 236.89C207.523 235.853 206.682 235.013 205.646 235.013C204.609 235.013 203.769 235.853 203.769 236.89V244.399C203.769 245.436 204.609 246.277 205.646 246.277C206.682 246.277 207.523 245.436 207.523 244.399V236.89Z" fill="#DDA816"/>
<path d="M214.674 236.89C214.674 235.853 213.834 235.013 212.797 235.013C211.76 235.013 210.92 235.853 210.92 236.89V244.399C210.92 245.436 211.76 246.277 212.797 246.277C213.834 246.277 214.674 245.436 214.674 244.399V236.89Z" fill="#DDA816"/>
<path d="M221.827 236.89C221.827 235.853 220.987 235.013 219.95 235.013C218.914 235.013 218.073 235.853 218.073 236.89V244.399C218.073 245.436 218.914 246.277 219.95 246.277C220.987 246.277 221.827 245.436 221.827 244.399V236.89Z" fill="#DDA816"/>
<path d="M228.976 236.89C228.976 235.853 228.135 235.013 227.099 235.013C226.062 235.013 225.222 235.853 225.222 236.89V244.399C225.222 245.436 226.062 246.277 227.099 246.277C228.135 246.277 228.976 245.436 228.976 244.399V236.89Z" fill="#DDA816"/>
<path d="M236.127 236.89C236.127 235.853 235.287 235.013 234.25 235.013C233.213 235.013 232.373 235.853 232.373 236.89V244.399C232.373 245.436 233.213 246.277 234.25 246.277C235.287 246.277 236.127 245.436 236.127 244.399V236.89Z" fill="#DDA816"/>
<path d="M243.28 236.89C243.28 235.853 242.44 235.013 241.403 235.013C240.367 235.013 239.526 235.853 239.526 236.89V244.399C239.526 245.436 240.367 246.277 241.403 246.277C242.44 246.277 243.28 245.436 243.28 244.399V236.89Z" fill="#DDA816"/>
<path d="M230.418 74.9482L225.289 72.4416C224.941 72.2713 224.612 72.705 224.869 72.9933L228.657 77.2641C228.941 77.5843 228.518 78.0384 228.178 77.7796L223.636 74.3216C223.328 74.0877 222.921 74.4464 223.116 74.7802L225.999 79.7095C226.215 80.0773 225.713 80.4429 225.429 80.1227L221.648 75.8451C221.392 75.5545 220.924 75.8292 221.049 76.1947L222.914 81.5917C223.055 81.9959 222.49 82.2547 222.277 81.8846L219.403 76.9508C219.208 76.6171 218.695 76.7942 218.747 77.1756L219.526 82.8337C219.585 83.256 218.981 83.4013 218.843 82.9972L216.986 77.5979C216.861 77.2324 216.323 77.305 216.3 77.691L215.96 83.3923C215.935 83.8191 215.315 83.8418 215.259 83.4195L214.492 77.7614C214.439 77.3777 213.899 77.3459 213.799 77.7205L212.353 83.2447C212.244 83.6579 211.634 83.5603 211.659 83.1334L212.011 77.4344C212.033 77.0484 211.509 76.9099 211.341 77.2573L208.847 82.3932C208.661 82.7769 208.08 82.5612 208.188 82.148L209.646 76.6261C209.743 76.2515 209.258 76.0154 209.024 76.3219L205.574 80.872C205.315 81.2126 204.788 80.8879 204.975 80.5042L207.48 75.3728C207.651 75.0254 207.217 74.6962 206.929 74.9528L202.659 78.7422C202.339 79.0261 201.885 78.6037 202.144 78.2632L205.601 73.7199C205.835 73.4111 205.476 73.0047 205.142 73.1999L200.215 76.0835C199.847 76.2992 199.482 75.7974 199.802 75.5136L204.078 71.7309C204.369 71.4743 204.094 71.0066 203.728 71.1315L198.333 72.9979C197.929 73.1386 197.671 72.5733 198.041 72.3598L202.973 69.4854C203.306 69.2901 203.129 68.777 202.748 68.8292L197.092 69.608C196.67 69.667 196.524 69.0631 196.928 68.9246L202.326 67.0673C202.691 66.9424 202.619 66.4043 202.233 66.3816L196.533 66.041C196.107 66.016 196.084 65.3962 196.506 65.3394L202.162 64.572C202.546 64.5198 202.578 63.9794 202.203 63.8795L196.681 62.4332C196.268 62.3242 196.365 61.7134 196.792 61.7384L202.489 62.0903C202.875 62.113 203.013 61.5885 202.666 61.4205L197.532 58.9252C197.148 58.7391 197.364 58.1578 197.777 58.2668L203.297 59.7245C203.672 59.8221 203.908 59.3362 203.601 59.1023L199.053 55.6512C198.712 55.3923 199.037 54.8656 199.421 55.0518L204.55 57.5584C204.897 57.7287 205.226 57.295 204.97 57.0067L201.182 52.7358C200.898 52.4157 201.32 51.9616 201.661 52.2204L206.202 55.6784C206.511 55.9123 206.917 55.5535 206.722 55.2198L203.84 50.2905C203.624 49.9227 204.126 49.5571 204.409 49.8773L208.191 54.1549C208.447 54.4455 208.915 54.1708 208.79 53.8052L206.924 48.4082C206.784 48.0041 207.349 47.7453 207.562 48.1153L210.436 53.0492C210.631 53.3829 211.144 53.2058 211.091 52.8244L210.313 47.1663C210.254 46.744 210.858 46.5986 210.996 47.0028L212.853 52.4021C212.978 52.7676 213.516 52.695 213.538 52.309L213.879 46.6077C213.904 46.1809 214.523 46.1582 214.58 46.5805L215.347 52.2386C215.399 52.6223 215.94 52.6541 216.039 52.2795L217.485 46.7553C217.594 46.3421 218.205 46.4397 218.18 46.8666L217.828 52.5655C217.805 52.9515 218.33 53.09 218.498 52.7426L220.992 47.6068C221.178 47.223 221.759 47.4387 221.65 47.852L220.193 53.3738C220.095 53.7485 220.581 53.9846 220.815 53.6781L224.265 49.128C224.524 48.7874 225.05 49.1121 224.864 49.4958L222.358 54.6272C222.188 54.9746 222.622 55.3038 222.91 55.0472L227.179 51.2577C227.499 50.9739 227.953 51.3962 227.695 51.7368L224.238 56.2801C224.004 56.5889 224.363 56.9953 224.696 56.8L229.624 53.9165C229.992 53.7008 230.357 54.2026 230.037 54.4864L225.761 58.2691C225.47 58.5256 225.745 58.9934 226.11 58.8685L231.505 57.0021C231.909 56.8613 232.168 57.4267 231.798 57.6401L226.866 60.5146C226.532 60.7099 226.709 61.223 227.091 61.1708L232.747 60.392C233.169 60.333 233.314 60.9369 232.91 61.0754L227.513 62.9327C227.148 63.0576 227.22 63.5957 227.606 63.6184L233.305 63.959C233.732 63.9839 233.755 64.6038 233.333 64.6605L227.676 65.428C227.293 65.4802 227.261 66.0206 227.636 66.1205L233.158 67.5668C233.571 67.6758 233.473 68.2865 233.047 68.2616L227.35 67.9096C226.964 67.8869 226.825 68.4114 227.173 68.5794L232.307 71.0747C232.69 71.2609 232.475 71.8422 232.062 71.7332L226.542 70.2755C226.167 70.1779 225.931 70.6638 226.237 70.8976L230.786 74.3488C231.126 74.6076 230.802 75.1344 230.418 74.9482Z" fill="#273DAA"/>
<path d="M215.041 58.165L218.51 64.1773L221.98 70.1897L215.041 66.3956L208.101 70.1897L211.571 64.1773L215.041 58.165Z" fill="#EEFFFF"/>
<path d="M215.041 70.1895V215.432" stroke="#021226" stroke-width="0.36614" stroke-miterlimit="10"/>
<path d="M215.042 201.482L205.97 216.615H214.996L215.042 201.482Z" fill="#EEFFFF"/>
<path d="M215.041 201.482L224.497 216.615H214.996L215.041 201.482Z" fill="#EEFFFF"/>
<path d="M215.263 211.868L216.78 214.493L218.294 217.118H215.263H212.233L213.75 214.493L215.263 211.868Z" fill="#3460E4"/>
<path d="M133.642 148.788C134.373 148.788 134.373 147.652 133.642 147.652C132.911 147.652 132.911 148.788 133.642 148.788Z" fill="white"/>
<path d="M314.987 139.119C315.717 139.119 315.717 137.983 314.987 137.983C314.256 137.983 314.256 139.119 314.987 139.119Z" fill="white"/>
<path d="M58.9173 160.096C59.6481 160.096 59.6481 158.961 58.9173 158.961C58.1864 158.961 58.1864 160.096 58.9173 160.096Z" fill="white"/>
<path d="M54.4251 220.878C55.1559 220.878 55.1559 219.743 54.4251 219.743C53.6942 219.743 53.6942 220.878 54.4251 220.878Z" fill="white"/>
<path d="M292.08 193.362C292.811 193.362 292.811 192.227 292.08 192.227C291.35 192.227 291.35 193.362 292.08 193.362Z" fill="white"/>
<path d="M296.559 77.313C297.29 77.313 297.29 76.1777 296.559 76.1777C295.828 76.1777 295.828 77.313 296.559 77.313Z" fill="white"/>
<path d="M45.8108 134.058C46.5417 134.058 46.5417 132.923 45.8108 132.923C45.08 132.923 45.08 134.058 45.8108 134.058Z" fill="white"/>
<path d="M139.07 71.8931C139.8 71.8931 139.8 70.7578 139.07 70.7578C138.339 70.7578 138.339 71.8931 139.07 71.8931Z" fill="white"/>
<path d="M262.597 20.2075C263.328 20.2075 263.328 19.0723 262.597 19.0723C261.866 19.0723 261.866 20.2075 262.597 20.2075Z" fill="white"/>
<path d="M223.864 18.9116C224.594 18.9116 224.594 17.7764 223.864 17.7764C223.133 17.7764 223.133 18.9116 223.864 18.9116Z" fill="white"/>
<path d="M326.909 185.382C327.64 185.382 327.64 184.247 326.909 184.247C326.179 184.247 326.179 185.382 326.909 185.382Z" fill="white"/>
<path d="M262.923 70.3577C263.289 70.3577 263.289 69.79 262.923 69.79C262.558 69.79 262.558 70.3577 262.923 70.3577Z" fill="white"/>
<path d="M313.534 23.5803C313.899 23.5803 313.899 23.0127 313.534 23.0127C313.168 23.0127 313.168 23.5803 313.534 23.5803Z" fill="white"/>
<path d="M184.255 160.058C184.62 160.058 184.62 159.49 184.255 159.49C183.889 159.49 183.889 160.058 184.255 160.058Z" fill="white"/>
<path d="M320.493 159.875C320.858 159.875 320.858 159.308 320.493 159.308C320.127 159.308 320.127 159.875 320.493 159.875Z" fill="white"/>
<path d="M148.508 112.528C148.874 112.528 148.874 111.96 148.508 111.96C148.143 111.96 148.143 112.528 148.508 112.528Z" fill="white"/>
<path d="M167.752 56.5999C168.117 56.5999 168.117 56.0322 167.752 56.0322C167.386 56.0322 167.386 56.5999 167.752 56.5999Z" fill="white"/>
<path d="M257.422 101.726C257.787 101.726 257.787 101.158 257.422 101.158C257.056 101.158 257.056 101.726 257.422 101.726Z" fill="white"/>
<path d="M174.903 100.073C175.268 100.073 175.268 99.5059 174.903 99.5059C174.538 99.5059 174.538 100.073 174.903 100.073Z" fill="white"/>
<path d="M197.458 11.4739C197.823 11.4739 197.823 10.9062 197.458 10.9062C197.092 10.9062 197.092 11.4739 197.458 11.4739Z" fill="white"/>
<path d="M113.288 138.598C113.653 138.598 113.653 138.03 113.288 138.03C112.922 138.03 112.922 138.598 113.288 138.598Z" stroke="url(#paint6_radial_171_3787)" stroke-width="1.85032"/>
<path d="M168.85 183.172C169.216 183.172 169.216 182.604 168.85 182.604C168.485 182.604 168.485 183.172 168.85 183.172Z" fill="white"/>
<path d="M312.905 49.6389C313.27 49.6389 313.27 49.0713 312.905 49.0713C312.54 49.0713 312.54 49.6389 312.905 49.6389Z" fill="white"/>
<path d="M272.8 46.385C273.166 46.385 273.166 45.8174 272.8 45.8174C272.435 45.8174 272.435 46.385 272.8 46.385Z" fill="white"/>
<path d="M256.873 1.56763C257.238 1.56763 257.238 1 256.873 1C256.507 1 256.507 1.56763 256.873 1.56763Z" stroke="url(#paint7_radial_171_3787)" stroke-width="1.85032"/>
<path d="M306.384 3.76978C306.75 3.76978 306.75 3.20215 306.384 3.20215C306.019 3.20215 306.019 3.76978 306.384 3.76978Z" stroke="url(#paint8_radial_171_3787)" stroke-width="1.85032"/>
<path d="M293.034 122.648C293.399 122.648 293.399 122.08 293.034 122.08C292.668 122.08 292.668 122.648 293.034 122.648Z" fill="white"/>
<path d="M134.192 2.66919C134.557 2.66919 134.557 2.10156 134.192 2.10156C133.827 2.10156 133.827 2.66919 134.192 2.66919Z" fill="white"/>
<path d="M45.8794 184.64C46.2186 184.64 46.2186 184.113 45.8794 184.113C45.5402 184.113 45.5402 184.64 45.8794 184.64Z" fill="white"/>
<circle cx="157.471" cy="165.5" r="5.46079" stroke="white" stroke-width="0.145711"/>
<circle cx="272.169" cy="165.5" r="5.46079" stroke="white" stroke-width="0.145711"/>
<path d="M286.121 392.875C311.215 392.875 331.558 372.532 331.558 347.437C331.558 322.343 311.215 302 286.121 302C261.027 302 240.684 322.343 240.684 347.437C240.684 372.532 261.027 392.875 286.121 392.875Z" fill="url(#paint9_radial_171_3787)"/>
<defs>
<linearGradient id="paint0_linear_171_3787" x1="174.008" y1="67.0312" x2="129.438" y2="147.045" gradientUnits="userSpaceOnUse">
<stop stop-color="#5A8AF2"/>
<stop offset="1" stop-color="#80A5F5"/>
</linearGradient>
<linearGradient id="paint1_linear_171_3787" x1="74.9479" y1="65.9731" x2="126.792" y2="150.616" gradientUnits="userSpaceOnUse">
<stop stop-color="#5A8AF2"/>
<stop offset="1" stop-color="#346FEF"/>
</linearGradient>
<linearGradient id="paint2_linear_171_3787" x1="124.944" y1="30.1641" x2="124.944" y2="102.732" gradientUnits="userSpaceOnUse">
<stop stop-color="#5A8AF2"/>
<stop offset="1" stop-color="#80A5F5"/>
</linearGradient>
<linearGradient id="paint3_linear_171_3787" x1="469.488" y1="115.458" x2="373.951" y2="137.102" gradientUnits="userSpaceOnUse">
<stop stop-color="#A5BFF8"/>
<stop offset="1" stop-color="#5A8AF2"/>
</linearGradient>
<linearGradient id="paint4_linear_171_3787" x1="367.889" y1="77.3454" x2="369.084" y2="178.264" gradientUnits="userSpaceOnUse">
<stop stop-color="#A5BFF8"/>
<stop offset="1" stop-color="#80A5F5"/>
</linearGradient>
<linearGradient id="paint5_linear_171_3787" x1="367.999" y1="78.7596" x2="469.525" y2="115.931" gradientUnits="userSpaceOnUse">
<stop stop-color="#346FEF"/>
<stop offset="1" stop-color="#80A5F5"/>
</linearGradient>
<radialGradient id="paint6_radial_171_3787" cx="0" cy="0" r="1" gradientUnits="userSpaceOnUse" gradientTransform="translate(113.315 138.03) rotate(89.9428) scale(42.0044 0.229644)">
<stop stop-color="#0B3184"/>
<stop offset="1" stop-color="#0B3184" stop-opacity="0"/>
</radialGradient>
<radialGradient id="paint7_radial_171_3787" cx="0" cy="0" r="1" gradientUnits="userSpaceOnUse" gradientTransform="translate(256.9 1.00002) rotate(89.9428) scale(42.0044 0.229644)">
<stop stop-color="#0B3184"/>
<stop offset="1" stop-color="#0B3184" stop-opacity="0"/>
</radialGradient>
<radialGradient id="paint8_radial_171_3787" cx="0" cy="0" r="1" gradientUnits="userSpaceOnUse" gradientTransform="translate(306.412 3.20216) rotate(89.9428) scale(42.0044 0.229644)">
<stop stop-color="#0B3184"/>
<stop offset="1" stop-color="#0B3184" stop-opacity="0"/>
</radialGradient>
<radialGradient id="paint9_radial_171_3787" cx="0" cy="0" r="1" gradientUnits="userSpaceOnUse" gradientTransform="translate(296.206 328.061) rotate(98.844) scale(65.5933)">
<stop stop-color="#CBDAFB"/>
<stop offset="0.463542" stop-color="#80A5F5"/>
<stop offset="0.901042" stop-color="#5A8AF2"/>
<stop offset="1" stop-color="#5A8AF2"/>
</radialGradient>
<clipPath id="clip0_171_3787">
<rect width="104.233" height="121" fill="white" transform="translate(74.6836 30)"/>
</clipPath>
<clipPath id="clip1_171_3787">
<rect width="106.988" height="115.839" fill="white" transform="translate(359.684 63.2803) rotate(-4.43868)"/>
</clipPath>
</defs>
</svg>
