<svg width="111" height="27" viewBox="0 0 111 27" fill="none" xmlns="http://www.w3.org/2000/svg">
<path d="M6.07313 2.13827C8.54937 2.13827 10.4743 2.6534 11.848 3.68366C13.2217 4.71392 13.9085 6.24124 13.9085 8.26562C13.9085 10.3804 13.2307 11.98 11.8751 13.0645C10.5376 14.1309 8.73916 14.6641 6.47981 14.6641H4.4464V20.927H0V2.13827H6.07313ZM6.10024 11.4649C7.14858 11.4649 7.94387 11.2209 8.48611 10.7328C9.04643 10.2267 9.32659 9.40433 9.32659 8.26562C9.32659 6.29547 8.22403 5.31039 6.0189 5.31039H4.4464V11.4649H6.10024Z" fill="#001738"/>
<path d="M24.0777 6.06953C25.3249 6.06953 26.3009 6.4491 27.0058 7.20825C27.7108 7.96739 28.0632 9.0338 28.0632 10.4075V20.927H23.7795V11.1395C23.7795 10.4165 23.662 9.91947 23.427 9.64834C23.1921 9.35915 22.8577 9.21455 22.4239 9.21455C21.5563 9.21455 20.7249 9.82909 19.9296 11.0582V20.927H15.6458V0.809771L19.9296 0.375977V8.07584C20.526 7.40707 21.1587 6.91001 21.8274 6.58467C22.4962 6.24125 23.2463 6.06953 24.0777 6.06953Z" fill="#001738"/>
<path d="M39.0786 20.9541C38.5002 22.8158 37.5513 24.2437 36.2318 25.2378C34.9304 26.25 33.1772 26.8194 30.9721 26.9459L30.5112 23.9365C31.8848 23.7557 32.897 23.4484 33.5477 23.0147C34.2165 22.5809 34.7497 21.885 35.1473 20.927H33.6833L29.2911 6.53044H33.846L36.4216 18.1887L39.2413 6.53044H43.6606L39.0786 20.9541Z" fill="#001738"/>
<path d="M67.3687 6.06953C69.5738 6.06953 71.2999 6.74734 72.5471 8.10295C73.7943 9.44048 74.4178 11.3203 74.4178 13.7423C74.4178 15.2786 74.1287 16.6252 73.5503 17.782C72.9899 18.9207 72.1766 19.8064 71.1102 20.439C70.0618 21.0716 68.8147 21.3879 67.3687 21.3879C65.1816 21.3879 63.4555 20.7192 62.1903 19.3816C60.9431 18.026 60.3195 16.1372 60.3195 13.7152C60.3195 12.1788 60.5997 10.8413 61.16 9.70257C61.7384 8.54578 62.5518 7.65108 63.6001 7.01846C64.6665 6.38584 65.9227 6.06953 67.3687 6.06953ZM67.3687 9.21455C66.5011 9.21455 65.8504 9.58508 65.4166 10.3261C64.9828 11.0491 64.7659 12.1788 64.7659 13.7152C64.7659 15.2877 64.9738 16.4354 65.3895 17.1584C65.8233 17.8814 66.483 18.2429 67.3687 18.2429C68.2363 18.2429 68.887 17.8814 69.3208 17.1584C69.7546 16.4174 69.9715 15.2786 69.9715 13.7423C69.9715 12.1698 69.7546 11.022 69.3208 10.299C68.905 9.57604 68.2543 9.21455 67.3687 9.21455Z" fill="#001738"/>
<path d="M45.6816 0.620431L50.2003 0V21.4638H45.6816V0.620431Z" fill="#001738"/>
<path d="M53.2129 0.620431L57.7316 0V21.4638H53.2129V0.620431Z" fill="#001738"/>
<path d="M77.9298 2.82501C77.5294 1.26311 110.927 2.9405 110.927 2.9405L95.0599 23.1364C95.0599 23.1364 88.9688 16.1491 86.1914 13.116C83.4141 10.083 78.3303 4.3869 77.9298 2.82501Z" fill="#2262ED"/>
<path d="M78.4573 7.63236C77.8944 6.23449 111 2.92676 111 2.92676L95.1078 23.1538C95.1078 23.1538 88.2473 16.8767 86.5714 15.4395C84.8956 14.0024 79.0202 9.03022 78.4573 7.63236Z" fill="#6D31C2"/>
<path d="M79.7706 12.7958C78.8923 11.7554 110.998 2.92676 110.998 2.92676L95.263 23.2682C95.263 23.2682 89.3886 19.6735 87.3218 18.452C85.2551 17.2305 80.649 13.8361 79.7706 12.7958Z" fill="#FF7D50"/>
<path d="M82.3332 18.4355C81.5631 17.6699 111.001 2.92676 111.001 2.92676L95.3205 23.4851C95.3181 23.4883 95.3141 23.4898 95.3102 23.4889C95.1771 23.4567 92.9561 22.915 89.5973 21.7733C86.8597 20.8429 83.1033 19.201 82.3332 18.4355Z" fill="#F9B90B"/>
</svg>
