<svg width="258" height="227" viewBox="0 0 258 227" fill="none" xmlns="http://www.w3.org/2000/svg">
<g opacity="0.1">
<path opacity="0.5" d="M13.319 -0.000637954L0 13.3184L13.319 26.6373L26.638 13.3184L13.319 -0.000637954Z" fill="#C4D0E2"/>
<path d="M48.7389 -0.000637954L35.4199 13.3184L48.7389 26.6373L62.0579 13.3184L48.7389 -0.000637954Z" fill="#C4D0E2" fill-opacity="0.6"/>
<path d="M84.1593 -0.000637954L70.8403 13.3184L84.1593 26.6373L97.4783 13.3184L84.1593 -0.000637954Z" fill="#C4D0E2" fill-opacity="0.7"/>
<path d="M119.58 -0.000637954L106.261 13.3184L119.58 26.6373L132.899 13.3184L119.58 -0.000637954Z" fill="#C4D0E2" fill-opacity="0.9"/>
<path d="M155 -0.000637954L141.681 13.3184L155 26.6373L168.319 13.3184L155 -0.000637954Z" fill="#C4D0E2"/>
<path d="M190.42 -0.000637954L177.101 13.3184L190.42 26.6373L203.739 13.3184L190.42 -0.000637954Z" fill="#C4D0E2"/>
<path d="M225.84 -0.000637954L212.521 13.3184L225.84 26.6373L239.159 13.3184L225.84 -0.000637954Z" fill="#C4D0E2"/>
<path d="M261.261 -0.000637954L247.942 13.3184L261.261 26.6373L274.58 13.3184L261.261 -0.000637954Z" fill="#C4D0E2"/>
<path opacity="0.5" d="M13.319 40.0013L0 53.3203L13.319 66.6393L26.638 53.3203L13.319 40.0013Z" fill="#C4D0E2"/>
<path d="M48.7389 40.0013L35.4199 53.3203L48.7389 66.6393L62.0579 53.3203L48.7389 40.0013Z" fill="#C4D0E2" fill-opacity="0.6"/>
<path d="M84.1593 40.0013L70.8403 53.3203L84.1593 66.6393L97.4783 53.3203L84.1593 40.0013Z" fill="#C4D0E2" fill-opacity="0.7"/>
<path d="M119.58 40.0013L106.261 53.3203L119.58 66.6393L132.899 53.3203L119.58 40.0013Z" fill="#C4D0E2" fill-opacity="0.9"/>
<path d="M155 40.0013L141.681 53.3203L155 66.6393L168.319 53.3203L155 40.0013Z" fill="#C4D0E2"/>
<path d="M190.42 40.0013L177.101 53.3203L190.42 66.6393L203.739 53.3203L190.42 40.0013Z" fill="#C4D0E2"/>
<path d="M225.84 40.0013L212.521 53.3203L225.84 66.6393L239.159 53.3203L225.84 40.0013Z" fill="#C4D0E2"/>
<path d="M261.261 40.0013L247.942 53.3203L261.261 66.6393L274.58 53.3203L261.261 40.0013Z" fill="#C4D0E2"/>
<path opacity="0.5" d="M13.319 80.0091L0 93.3281L13.319 106.647L26.638 93.3281L13.319 80.0091Z" fill="#C4D0E2"/>
<path d="M48.7394 80.0091L35.4204 93.3281L48.7394 106.647L62.0584 93.3281L48.7394 80.0091Z" fill="#C4D0E2" fill-opacity="0.6"/>
<path d="M84.1593 80.0091L70.8403 93.3281L84.1593 106.647L97.4783 93.3281L84.1593 80.0091Z" fill="#C4D0E2" fill-opacity="0.7"/>
<path d="M119.58 80.0091L106.261 93.3281L119.58 106.647L132.899 93.3281L119.58 80.0091Z" fill="#C4D0E2" fill-opacity="0.9"/>
<path d="M155 80.0091L141.681 93.3281L155 106.647L168.319 93.3281L155 80.0091Z" fill="#C4D0E2"/>
<path d="M190.42 80.0091L177.101 93.3281L190.42 106.647L203.739 93.3281L190.42 80.0091Z" fill="#C4D0E2"/>
<path d="M225.84 80.0091L212.521 93.3281L225.84 106.647L239.159 93.3281L225.84 80.0091Z" fill="#C4D0E2"/>
<path d="M261.261 80.0091L247.942 93.3281L261.261 106.647L274.58 93.3281L261.261 80.0091Z" fill="#C4D0E2"/>
<path opacity="0.5" d="M13.319 120.013L0 133.332L13.319 146.651L26.638 133.332L13.319 120.013Z" fill="#C4D0E2"/>
<path d="M48.7389 120.013L35.4199 133.332L48.7389 146.651L62.0579 133.332L48.7389 120.013Z" fill="#C4D0E2" fill-opacity="0.6"/>
<path d="M84.1593 120.013L70.8403 133.332L84.1593 146.651L97.4783 133.332L84.1593 120.013Z" fill="#C4D0E2" fill-opacity="0.7"/>
<path d="M119.58 120.013L106.261 133.332L119.58 146.651L132.899 133.332L119.58 120.013Z" fill="#C4D0E2" fill-opacity="0.9"/>
<path d="M155 120.013L141.681 133.332L155 146.651L168.319 133.332L155 120.013Z" fill="#C4D0E2"/>
<path d="M190.42 120.013L177.101 133.332L190.42 146.651L203.739 133.332L190.42 120.013Z" fill="#C4D0E2"/>
<path d="M225.84 120.013L212.521 133.332L225.84 146.651L239.159 133.332L225.84 120.013Z" fill="#C4D0E2"/>
<path d="M261.261 120.013L247.942 133.332L261.261 146.651L274.58 133.332L261.261 120.013Z" fill="#C4D0E2"/>
<path opacity="0.5" d="M13.319 160.021L0 173.34L13.319 186.659L26.638 173.34L13.319 160.021Z" fill="#C4D0E2"/>
<path d="M48.7389 160.021L35.4199 173.34L48.7389 186.659L62.0579 173.34L48.7389 160.021Z" fill="#C4D0E2" fill-opacity="0.6"/>
<path d="M84.1593 160.021L70.8403 173.34L84.1593 186.659L97.4783 173.34L84.1593 160.021Z" fill="#C4D0E2" fill-opacity="0.7"/>
<path d="M119.58 160.021L106.261 173.34L119.58 186.659L132.899 173.34L119.58 160.021Z" fill="#C4D0E2" fill-opacity="0.9"/>
<path d="M155 160.021L141.681 173.34L155 186.659L168.319 173.34L155 160.021Z" fill="#C4D0E2"/>
<path d="M190.42 160.021L177.101 173.34L190.42 186.659L203.739 173.34L190.42 160.021Z" fill="#C4D0E2"/>
<path d="M225.84 160.021L212.521 173.34L225.84 186.659L239.159 173.34L225.84 160.021Z" fill="#C4D0E2"/>
<path d="M261.261 160.021L247.942 173.34L261.261 186.659L274.58 173.34L261.261 160.021Z" fill="#C4D0E2"/>
<path opacity="0.5" d="M13.319 200.029L0 213.348L13.319 226.667L26.638 213.348L13.319 200.029Z" fill="#C4D0E2"/>
<path d="M48.7389 200.029L35.4199 213.348L48.7389 226.667L62.0579 213.348L48.7389 200.029Z" fill="#C4D0E2" fill-opacity="0.6"/>
<path d="M84.1593 200.029L70.8403 213.348L84.1593 226.667L97.4783 213.348L84.1593 200.029Z" fill="#C4D0E2" fill-opacity="0.7"/>
<path d="M119.58 200.029L106.261 213.348L119.58 226.667L132.899 213.348L119.58 200.029Z" fill="#C4D0E2" fill-opacity="0.9"/>
<path d="M155 200.029L141.681 213.348L155 226.667L168.319 213.348L155 200.029Z" fill="#C4D0E2"/>
<path d="M190.42 200.029L177.101 213.348L190.42 226.667L203.739 213.348L190.42 200.029Z" fill="#C4D0E2"/>
<path d="M225.84 200.029L212.521 213.348L225.84 226.667L239.159 213.348L225.84 200.029Z" fill="#C4D0E2"/>
<path d="M261.261 200.029L247.942 213.348L261.261 226.667L274.58 213.348L261.261 200.029Z" fill="#C4D0E2"/>
</g>
</svg>
