<svg width="25" height="25" viewBox="0 0 25 25" fill="none" xmlns="http://www.w3.org/2000/svg">
<path d="M11.298 18.7331L12.1756 16.7229C12.9567 14.9341 14.3625 13.5101 16.1161 12.7317L18.5318 11.6594C19.2998 11.3185 19.2998 10.2012 18.5318 9.86027L16.1915 8.82144C14.3928 8.02302 12.9618 6.54631 12.1941 4.69644L11.3051 2.55423C10.9752 1.75927 9.87678 1.75927 9.54689 2.55423L8.65786 4.69642C7.89016 6.54631 6.45912 8.02302 4.66044 8.82144L2.32017 9.86027C1.55213 10.2012 1.55213 11.3185 2.32017 11.6594L4.73589 12.7317C6.48948 13.5101 7.8953 14.9341 8.67634 16.7229L9.55399 18.7331C9.89135 19.5057 10.9606 19.5057 11.298 18.7331ZM20.085 23.6274L20.3318 23.0617C20.7718 22.0531 21.5643 21.25 22.5531 20.8107L23.3135 20.4728C23.7248 20.2901 23.7248 19.6924 23.3135 19.5097L22.5957 19.1907C21.5814 18.7401 20.7747 17.9073 20.3422 16.8644L20.0888 16.2531C19.9121 15.8271 19.3231 15.8271 19.1464 16.2531L18.893 16.8644C18.4606 17.9073 17.6539 18.7401 16.6396 19.1907L15.9217 19.5097C15.5105 19.6924 15.5105 20.2901 15.9217 20.4728L16.6821 20.8107C17.671 21.25 18.4634 22.0531 18.9034 23.0617L19.1503 23.6274C19.3309 24.0415 19.9043 24.0415 20.085 23.6274Z" fill="#5A5A67"/>
</svg>
