<svg width="29" height="29" viewBox="0 0 29 29" fill="none" xmlns="http://www.w3.org/2000/svg">
<path d="M11.1842 5.04232C12.4729 5.04232 13.5176 6.08699 13.5176 7.37565V15.3406C12.4743 14.5358 11.1446 14.0612 9.62605 13.8082L9.24244 16.1098C10.8532 16.3782 11.8812 16.8873 12.5145 17.5733C13.1326 18.2428 13.5176 19.2372 13.5176 20.7923C13.5176 22.4031 12.2117 23.709 10.6009 23.709C8.99008 23.709 7.68425 22.4031 7.68425 20.7923V20.3832C8.18599 20.5504 8.70664 20.6872 9.24244 20.7765L9.62605 18.4749C8.75932 18.3304 7.88865 18.0091 7.01818 17.5955C6.02941 17.1258 5.35091 16.1245 5.35091 14.959C5.35091 13.9852 5.59312 13.2189 6.00278 12.6556C6.40606 12.1011 7.03313 11.6577 7.96721 11.4241L8.85091 11.2032V7.37565C8.85091 6.08699 9.89558 5.04232 11.1842 5.04232ZM14.6842 4.28886C13.8292 3.32004 12.5781 2.70898 11.1842 2.70898C8.60691 2.70898 6.51758 4.79832 6.51758 7.37565V9.44557C5.52469 9.84483 4.71091 10.4648 4.11572 11.2832C3.3587 12.3241 3.01758 13.5995 3.01758 14.959C3.01758 16.7851 3.94584 18.3851 5.35091 19.3249V20.7923C5.35091 23.6918 7.70142 26.0423 10.6009 26.0423C12.2501 26.0423 13.7217 25.2819 14.6842 24.0925C15.6467 25.2819 17.1184 26.0423 18.7676 26.0423C21.6671 26.0423 24.0176 23.6918 24.0176 20.7923V19.3249C25.4227 18.3851 26.3509 16.7851 26.3509 14.959C26.3509 13.5995 26.0098 12.3241 25.2527 11.2832C24.6576 10.4648 23.8439 9.84483 22.8509 9.44557V7.37565C22.8509 4.79832 20.7615 2.70898 18.1842 2.70898C16.7904 2.70898 15.5393 3.32004 14.6842 4.28886ZM21.6842 20.3832V20.7923C21.6842 22.4031 20.3784 23.709 18.7676 23.709C17.1568 23.709 15.8509 22.4031 15.8509 20.7923C15.8509 19.2372 16.2359 18.2428 16.854 17.5733C17.4873 16.8873 18.5153 16.3782 20.126 16.1098L19.7424 13.8082C18.2239 14.0612 16.8941 14.5358 15.8509 15.3406V7.37565C15.8509 6.08699 16.8955 5.04232 18.1842 5.04232C19.4729 5.04232 20.5176 6.08699 20.5176 7.37565V11.2032L21.4013 11.4241C22.3354 11.6577 22.9624 12.1011 23.3658 12.6556C23.7754 13.2189 24.0176 13.9852 24.0176 14.959C24.0176 16.1245 23.339 17.1258 22.3503 17.5955C21.4798 18.0091 20.6092 18.3304 19.7424 18.4749L20.126 20.7765C20.6619 20.6872 21.1825 20.5504 21.6842 20.3832Z" fill="#5A5A67"/>
</svg>
