<svg width="32" height="32" viewBox="0 0 32 32" fill="none" xmlns="http://www.w3.org/2000/svg">
<circle cx="16" cy="16" r="16" fill="#F5F5F5"/>
<path d="M22.3361 14.36C22.6229 15.452 22.6229 16.544 22.336 17.636C22.049 18.7282 21.4977 19.6823 20.6816 20.4989C19.8655 21.3155 18.9119 21.8675 17.8206 22.1546C16.7293 22.4418 15.6382 22.4418 14.5468 22.1547C13.4554 21.8675 12.5017 21.3156 11.6858 20.4991C10.8697 19.6825 10.3184 18.7282 10.0313 17.6361C9.74439 16.5441 9.74439 15.4522 10.0313 14.36C10.3183 13.268 10.8698 12.3137 11.6858 11.4971C12.5018 10.6805 13.4555 10.1286 14.5468 9.84143C15.638 9.55423 16.7293 9.55439 17.8205 9.84149C18.9118 10.1287 19.8654 10.6807 20.6814 11.4972C21.4975 12.3138 22.049 13.2681 22.3361 14.36ZM20.0256 19.8426C20.9938 18.8737 21.519 17.7074 21.601 16.3439L21.4253 16.3147C21.355 16.3029 21.2028 16.2971 20.9685 16.297C20.7343 16.297 20.4951 16.3136 20.2511 16.3468C20.007 16.3801 19.6987 16.4483 19.3257 16.552C18.9528 16.6555 18.5809 16.7912 18.2099 16.9592C18.5888 18.2369 18.8543 19.4637 19.0065 20.6397C19.3892 20.4052 19.7288 20.1395 20.0256 19.8426ZM15.5572 21.3957C16.4043 21.4934 17.2242 21.3997 18.0168 21.1144C17.8568 19.9853 17.5951 18.7702 17.232 17.4691C15.7328 18.3443 14.3936 19.3718 13.2145 20.5518C13.929 21.0166 14.71 21.298 15.5572 21.3957ZM11.2142 18.1986C11.4816 18.8101 11.8575 19.3581 12.3417 19.8427C12.3964 19.8974 12.4394 19.9364 12.4706 19.9599C13.884 18.5454 15.3794 17.4123 16.9568 16.5606C16.8397 16.1934 16.7265 15.873 16.6171 15.5994C16.5935 15.6074 16.5596 15.6239 16.5146 15.6493C16.4696 15.6748 16.4375 15.6934 16.4178 15.7052L16.125 15.8458C15.9219 15.9396 15.6339 16.0402 15.2612 16.1477C14.8882 16.2549 14.4754 16.3517 14.0225 16.4377C13.5695 16.5236 13.0483 16.5587 12.4586 16.543C11.8691 16.5274 11.303 16.4435 10.7603 16.2911C10.7955 16.9514 10.9469 17.5873 11.2142 18.1986ZM12.3417 12.1534C11.428 13.0677 10.9049 14.1774 10.7721 15.4823L10.7955 15.3299C11.2328 15.4941 11.7228 15.582 12.2656 15.5936C12.8082 15.6053 13.2876 15.5732 13.7034 15.497C14.1191 15.4207 14.5466 15.3133 14.9861 15.1747C15.4252 15.0359 15.718 14.9346 15.8644 14.8699C16.0109 14.8054 16.1271 14.7537 16.213 14.7146L16.2306 14.7089L16.2424 14.6971C15.6215 13.3102 14.9226 12.0636 14.1456 10.958C13.4583 11.2392 12.8572 11.6377 12.3417 12.1534ZM17.3405 10.6852C16.6044 10.527 15.8732 10.5182 15.1472 10.6588C15.885 11.7177 16.5509 12.884 17.1442 14.1577C18.0423 13.5014 18.7841 12.6457 19.3698 11.5909C18.7529 11.1455 18.0763 10.8435 17.3405 10.6852ZM20.0197 12.2648C19.9884 12.3116 19.9484 12.3694 19.8996 12.4377C19.8507 12.506 19.7912 12.5891 19.7209 12.6868C19.6507 12.7844 19.5695 12.891 19.4779 13.0062C19.3861 13.1215 19.2865 13.2425 19.1791 13.3696C19.0718 13.4966 18.9545 13.6294 18.8278 13.7681C18.7007 13.9069 18.569 14.0446 18.4323 14.1813C18.2958 14.318 18.1482 14.4577 17.9902 14.6003C17.8323 14.743 17.673 14.8746 17.513 14.9958C17.5208 15.0271 17.5384 15.074 17.5658 15.1365C17.5931 15.199 17.6145 15.246 17.6304 15.277C17.7201 15.5155 17.8196 15.7871 17.9288 16.0919C18.3076 15.9317 18.6903 15.8007 19.077 15.699C19.4635 15.5976 19.7853 15.5292 20.0431 15.494C20.3009 15.4589 20.5576 15.4384 20.8133 15.4325C21.0691 15.4266 21.2407 15.4286 21.3287 15.4383C21.4167 15.4481 21.5016 15.4588 21.5835 15.4705L21.5953 15.4706C21.4703 14.2047 20.9609 13.1126 20.0666 12.1945L20.0197 12.2648Z" fill="#292929"/>
</svg>
