<svg width="25" height="25" viewBox="0 0 25 25" fill="none" xmlns="http://www.w3.org/2000/svg">
<path d="M8.6246 18.9375C8.3275 17.6649 6.98771 16.6232 6.43754 15.9367C5.34004 14.5672 4.68359 12.829 4.68359 10.9375C4.68359 6.51922 8.26531 2.9375 12.6836 2.9375C17.1019 2.9375 20.6836 6.51922 20.6836 10.9375C20.6836 12.83 20.0264 14.569 18.9279 15.9389C18.378 16.6245 17.0394 17.6651 16.7426 18.9375H8.6246ZM16.6836 20.9375V21.9375C16.6836 23.0421 15.7882 23.9375 14.6836 23.9375H10.6836C9.57902 23.9375 8.68359 23.0421 8.68359 21.9375V20.9375H16.6836ZM13.6836 10.9423V6.9375L9.18359 12.9423H11.6836V16.9423L16.1836 10.9423H13.6836Z" fill="#5A5A67"/>
</svg>
