<svg width="32" height="32" viewBox="0 0 32 32" fill="none" xmlns="http://www.w3.org/2000/svg">
<circle cx="16" cy="16" r="16" fill="#F5F5F5"/>
<path fill-rule="evenodd" clip-rule="evenodd" d="M21.1416 21H19.143V17.5005C19.143 16.5405 18.7198 16.0049 17.9608 16.0049C17.1348 16.0049 16.6447 16.563 16.6447 17.5005V21H14.646V14.5H16.6447V15.231C16.6447 15.231 17.2717 14.1299 18.6848 14.1299C20.0983 14.1299 21.1416 14.9931 21.1416 16.7791V21ZM12.3686 13.4604C11.6946 13.4604 11.1484 12.9095 11.1484 12.23C11.1484 11.551 11.6946 11 12.3686 11C13.0421 11 13.5883 11.551 13.5883 12.23C13.5888 12.9095 13.0421 13.4604 12.3686 13.4604ZM11.1484 21H13.6467V14.5H11.1484V21Z" fill="#292929"/>
</svg>
