<svg width="29" height="29" viewBox="0 0 29 29" fill="none" xmlns="http://www.w3.org/2000/svg">
<g clip-path="url(#clip0_171_3803)">
<path d="M25.1836 3.87695C25.8279 3.87695 26.3503 4.39929 26.3503 5.04362V23.718C26.3503 24.358 25.8191 24.877 25.1932 24.877H4.17403C3.53499 24.877 3.01693 24.3579 3.01693 23.718V22.5436H24.0169V8.89362L14.6836 17.2936L3.01693 6.79362V5.04362C3.01693 4.39929 3.53927 3.87695 4.18359 3.87695H25.1836ZM10.0169 17.877V20.2103H0.683594V17.877H10.0169ZM6.51693 12.0436V14.377H0.683594V12.0436H6.51693ZM23.5105 6.21029H5.85676L14.6836 14.1545L23.5105 6.21029Z" fill="#5A5A67"/>
</g>
<defs>
<clipPath id="clip0_171_3803">
<rect width="28" height="28" fill="white" transform="translate(0.683594 0.375)"/>
</clipPath>
</defs>
</svg>
