<svg width="29" height="29" viewBox="0 0 29 29" fill="none" xmlns="http://www.w3.org/2000/svg">
<path d="M14.5212 3.16498C15.6744 2.39621 17.1725 2.38028 18.3417 3.12433L23.1894 6.20924H25.183C25.8274 6.20924 26.3497 6.73158 26.3497 7.37591V17.8759C26.3497 18.5202 25.8274 19.0425 25.183 19.0425H23.4101C23.4795 20.1477 22.9588 21.2712 21.9114 21.8997L15.9691 25.4651C15.2189 25.9151 14.2877 25.9046 13.5532 25.4563C12.7362 26.1788 11.4786 26.2584 10.5661 25.5414L4.56859 20.829C3.67445 20.1266 3.44834 18.9263 3.91002 17.9748C3.34616 17.5326 3.0166 16.8556 3.0166 16.1387V7.37598C3.0166 6.73165 3.53894 6.20931 4.18327 6.20931H9.95469L14.5212 3.16498ZM5.55135 16.2954L6.35872 15.589C7.79396 14.333 9.97042 14.4574 11.2533 15.8686L14.4058 19.3364C15.4203 20.4523 15.6053 22.0917 14.8675 23.4048L20.7109 19.8989C21.0392 19.7019 21.1579 19.3082 21.0355 18.9765L15.8706 11.7457C15.5804 11.3396 15.0641 11.163 14.586 11.3064L11.6865 12.1762C10.4532 12.5462 9.11638 12.2091 8.20592 11.2987L7.86436 10.9572C7.20168 10.2945 7.03031 9.35135 7.30918 8.54264H5.34993V16.1387L5.55135 16.2954ZM17.0891 5.09288C16.6993 4.84486 16.1999 4.85017 15.8155 5.10643L9.51427 9.30724L9.85583 9.64881C10.1593 9.95229 10.6049 10.0646 11.016 9.9413L13.9155 9.07146C15.3498 8.64117 16.899 9.171 17.7693 10.3895L22.2834 16.7092H24.0164V8.54257H23.1894C22.7456 8.54257 22.3111 8.41604 21.9367 8.17779L17.0891 5.09288ZM7.89523 17.3449L6.01019 18.9943L12.0077 23.7067L12.829 22.2695C13.0798 21.8306 13.0194 21.2801 12.6793 20.9059L9.52675 17.4381C9.09913 16.9677 8.37364 16.9263 7.89523 17.3449Z" fill="#5A5A67"/>
</svg>
